HIERARCHY
ROOT SpineBase
{
  OFFSET 0.000000 0.000000 0.000000
  CHANNELS 6 Xposition Yposition Zposition Zrotation Xrotation Yrotation
  JOINT SpineMid
  {
    OFFSET -0.000000 30.684592 0.000000
    CHANNELS 3 Zrotation Xrotation Yrotation
    JOINT SpineShoulder
    {
      OFFSET 0.084433 22.716564 -0.291031
      CHANNELS 3 Zrotation Xrotation Yrotation
      JOINT Neck
      {
        OFFSET 0.013780 7.567414 -0.309415
        CHANNELS 3 Zrotation Xrotation Yrotation
        JOINT Head
        {
          OFFSET -4.249043 13.104742 -2.288805
          CHANNELS 3 Zrotation Xrotation Yrotation
          End Site
          {
            OFFSET 0 0 0
          }
        }
      }
      JOINT ShoulderLeft
      {
        OFFSET -16.978326 -3.202536 7.324381
        CHANNELS 3 Zrotation Xrotation Yrotation
        JOINT ElbowLeft
        {
          OFFSET -12.045788 -15.283865 -4.379315
          CHANNELS 3 Zrotation Xrotation Yrotation
          JOINT WristLeft
          {
            OFFSET -0.561799 25.906531 -15.741361
            CHANNELS 3 Zrotation Xrotation Yrotation
            JOINT HandLeft
            {
              OFFSET -2.597996 6.059013 -3.991266
              CHANNELS 3 Zrotation Xrotation Yrotation
              JOINT HandTipLeft
              {
                OFFSET 0.090892 4.402523 -4.499638
                CHANNELS 3 Zrotation Xrotation Yrotation
                End Site
                {
                  OFFSET 0 0 0
                }
              }
              JOINT ThumbLeft
              {
                OFFSET 4.645404 1.215470 -1.173547
                CHANNELS 3 Zrotation Xrotation Yrotation
                End Site
                {
                  OFFSET 0 0 0
                }
              }
            }
          }
        }
      }
      JOINT ShoulderRight
      {
        OFFSET 15.065563 -1.270144 -7.147671
        CHANNELS 3 Zrotation Xrotation Yrotation
        JOINT ElbowRight
        {
          OFFSET 8.314940 -24.719863 -1.761539
          CHANNELS 3 Zrotation Xrotation Yrotation
          JOINT WristRight
          {
            OFFSET -4.221256 -19.085166 -10.801612
            CHANNELS 3 Zrotation Xrotation Yrotation
            JOINT HandRight
            {
              OFFSET -4.317404 -5.636355 -5.317149
              CHANNELS 3 Zrotation Xrotation Yrotation
              JOINT HandTipRight
              {
                OFFSET -2.614175 -3.421215 -3.096166
                CHANNELS 3 Zrotation Xrotation Yrotation
                End Site
                {
                  OFFSET 0 0 0
                }
              }
              JOINT ThumbRight
              {
                OFFSET 1.078560 -1.577414 -2.733336
                CHANNELS 3 Zrotation Xrotation Yrotation
                End Site
                {
                  OFFSET 0 0 0
                }
              }
            }
          }
        }
      }
    }
  }
  JOINT HipLeft
  {
    OFFSET -6.300623 0.682614 -0.355676
    CHANNELS 3 Zrotation Xrotation Yrotation
    JOINT KneeLeft
    {
      OFFSET -0.768899 -38.145251 -0.518602
      CHANNELS 3 Zrotation Xrotation Yrotation
      JOINT AnkleLeft
      {
        OFFSET 3.078020 -38.359372 6.230702
        CHANNELS 3 Zrotation Xrotation Yrotation
        JOINT FootLeft
        {
          OFFSET -1.694289 -7.627019 -4.818340
          CHANNELS 3 Zrotation Xrotation Yrotation
          End Site
          {
            OFFSET 0 0 0
          }
        }
      }
    }
  }
  JOINT HipRight
  {
    OFFSET 6.758737 1.668376 -5.691536
    CHANNELS 3 Zrotation Xrotation Yrotation
    JOINT KneeRight
    {
      OFFSET 5.123951 -32.970908 -5.253380
      CHANNELS 3 Zrotation Xrotation Yrotation
      JOINT AnkleRight
      {
        OFFSET 2.895953 -40.495761 8.687138
        CHANNELS 3 Zrotation Xrotation Yrotation
        JOINT FootRight
        {
          OFFSET -3.575575 -2.259687 -13.583933
          CHANNELS 3 Zrotation Xrotation Yrotation
          End Site
          {
            OFFSET 0 0 0
          }
        }
      }
    }
  }
}
MOTION
Frames: 9
Frame Time: 0.033333
-24.455069 86.666208 328.228594 0.000000 0.000000 22.224194 -0.000000 0.000000 -22.224194 -0.000000 0.000000 0.000000 -0.000000 0.000000 0.000000 0.000000 0.000000 0.000000 -0.000000 0.000000 0.000000 -0.000000 0.000000 0.000000 -0.000000 0.000000 0.000000 -0.000000 0.000000 0.000000 0.000000 0.000000 0.000000 0.000000 0.000000 0.000000 -0.000000 0.000000 0.000000 -0.000000 0.000000 0.000000 -0.000000 0.000000 0.000000 -0.000000 0.000000 0.000000 0.000000 0.000000 0.000000 0.000000 0.000000 0.000000 -0.000000 0.000000 -22.224194 -0.000000 0.000000 0.000000 -0.000000 0.000000 0.000000 0.000000 0.000000 0.000000 -0.000000 0.000000 -22.224194 -0.000000 0.000000 0.000000 -0.000000 0.000000 0.000000 0.000000 0.000000 0.000000
-25.588002 86.474693 329.399246 -0.367058 -0.663932 22.371981 -0.076065 -0.155670 -22.376435 -0.060807 -0.045840 -0.014332 1.516386 1.523161 0.385321 0.000000 0.000000 0.000000 11.848228 -6.541209 3.496377 -2.487890 -6.372543 2.632978 -1.088976 5.175674 -3.964198 -1.678375 -4.899792 4.996292 0.000000 0.000000 0.000000 0.000000 0.000000 0.000000 -0.901969 0.805691 0.102766 2.505272 -2.611208 -0.112953 -2.152400 1.255374 2.159414 4.556036 0.300296 -4.662104 0.000000 0.000000 0.000000 0.000000 0.000000 0.000000 1.387891 -0.487602 -22.379627 -0.386393 1.664964 0.197733 -0.964822 1.095360 -0.527900 0.000000 0.000000 0.000000 1.511461 -0.334937 -22.623854 -0.636992 1.220413 0.414917 -0.939548 -1.131176 2.799620 0.000000 0.000000 0.000000
-26.627186 86.293357 330.458242 -0.624776 -1.204284 22.460054 -0.121342 -0.303114 -22.471025 -0.101792 -0.103516 -0.023590 2.678649 2.814786 0.661934 0.000000 0.000000 0.000000 21.152084 -10.831290 6.787960 6.725087 -23.765198 13.507928 -4.812855 16.161642 -11.228832 -3.282481 -9.338003 12.589189 0.000000 0.000000 0.000000 0.000000 0.000000 0.000000 -1.751539 1.593642 0.250355 4.410819 -4.764782 -0.128486 -3.816551 2.283721 3.944311 7.885915 0.445814 -8.362448 0.000000 0.000000 0.000000 0.000000 0.000000 0.000000 2.510970 -0.857395 -22.481368 -0.565824 3.078870 0.373944 -1.864931 1.877050 -1.016052 0.000000 0.000000 0.000000 2.791772 -0.294373 -22.875577 -0.970546 1.948130 0.726321 -1.656142 -2.831682 5.169890 0.000000 0.000000 0.000000
-27.572619 86.122200 331.405583 -0.775196 -1.624281 22.486274 -0.137267 -0.444115 -22.503155 -0.123275 -0.172796 -0.028254 3.494927 3.877515 0.853250 0.000000 0.000000 0.000000 27.965946 -13.439785 9.376583 29.845393 -40.254012 36.696822 -8.355985 25.779181 -19.114128 -5.387106 -9.347401 21.246097 0.000000 0.000000 0.000000 0.000000 0.000000 0.000000 -2.548583 2.368198 0.434514 5.718975 -6.450453 -0.071774 -4.986881 3.151336 5.224540 10.045728 0.630932 -10.969933 0.000000 0.000000 0.000000 0.000000 0.000000 0.000000 3.375642 -1.103684 -22.523485 -0.544409 4.230051 0.528058 -2.706635 2.377291 -1.463630 0.000000 0.000000 0.000000 3.853353 0.122584 -22.980604 -1.005556 2.179708 0.937939 -2.089578 -5.186604 7.195039 0.000000 0.000000 0.000000
-28.424301 85.961222 332.241269 -0.819570 -1.926336 22.448885 -0.124832 -0.580129 -22.469061 -0.125616 -0.253672 -0.028529 3.970680 4.714707 0.977497 0.000000 0.000000 0.000000 32.719567 -14.970321 11.196145 50.681378 -45.068762 58.350459 -8.723913 25.474433 -24.042939 -8.196292 -5.353093 28.198421 0.000000 0.000000 0.000000 0.000000 0.000000 0.000000 -3.293786 3.133819 0.647937 6.429978 -7.664247 0.037616 -5.657391 3.904783 5.909898 11.108652 0.973765 -12.431068 0.000000 0.000000 0.000000 0.000000 0.000000 0.000000 3.986302 -1.221755 -22.501584 -0.328333 5.108241 0.661885 -3.494034 2.623468 -1.868178 0.000000 0.000000 0.000000 4.702545 0.918649 -22.940104 -0.749552 1.908601 1.060097 -2.145509 -8.373831 8.958201 0.000000 0.000000 0.000000
-29.182234 85.810423 332.965300 -0.758364 -2.112001 22.346929 -0.084588 -0.712267 -22.366381 -0.109189 -0.346341 -0.024362 4.109039 5.329616 1.048074 0.000000 0.000000 0.000000 35.847047 -15.826209 12.340086 62.358793 -45.788852 71.546997 -7.602548 21.862748 -26.841350 -10.705883 -1.464239 32.845958 0.000000 0.000000 0.000000 0.000000 0.000000 0.000000 -3.988334 3.894968 0.884117 6.540036 -8.402189 0.186091 -5.813482 4.560217 5.949634 11.125316 1.518124 -12.743362 0.000000 0.000000 0.000000 0.000000 0.000000 0.000000 4.344894 -1.207907 -22.412977 0.076425 5.704674 0.779483 -4.229002 2.636294 -2.226038 0.000000 0.000000 0.000000 5.339132 2.098037 -22.755390 -0.212067 1.126071 1.109420 -1.664758 -12.706330 10.554149 0.000000 0.000000 0.000000
-29.927755 85.725576 333.424879 -0.519202 -1.780188 21.936279 -0.148585 -0.961488 -21.946999 -0.152004 -0.547561 -0.017255 3.568095 5.514011 1.024292 0.000000 0.000000 0.000000 36.585724 -15.765656 12.183705 77.924059 -50.923361 91.284664 3.593790 21.388745 -35.248101 -17.277530 -8.429454 38.572550 0.000000 0.000000 0.000000 0.000000 0.000000 0.000000 -3.758476 4.354961 0.953266 5.065023 -8.973800 0.685569 -3.949747 4.198859 4.934475 8.618191 3.391222 -11.440464 0.000000 0.000000 0.000000 0.000000 0.000000 0.000000 4.045779 -1.434228 -21.978599 1.088235 6.081645 0.897584 -5.920970 2.412252 -2.114297 0.000000 0.000000 0.000000 5.175348 3.426884 -22.089300 1.115787 -0.259588 1.105919 0.644931 -21.458305 15.128203 0.000000 0.000000 0.000000
-30.748922 85.579451 333.946501 -0.515397 -1.677737 21.565567 0.155918 -1.139258 -21.573742 -0.131401 -0.665746 -0.005276 2.819592 5.407820 0.927188 0.000000 0.000000 0.000000 37.282095 -15.781252 12.091541 88.597151 -53.258213 105.561519 8.587208 21.263007 -40.252959 -20.778847 -6.962527 40.436043 0.000000 0.000000 0.000000 0.000000 0.000000 0.000000 -4.210455 5.049488 1.201480 4.134726 -9.149570 0.862404 -3.939448 5.581568 4.004790 6.863363 4.058194 -9.665974 0.000000 0.000000 0.000000 0.000000 0.000000 0.000000 4.511978 -1.239933 -21.622828 1.613150 5.749532 1.031998 -6.749497 2.193822 -2.309405 0.000000 0.000000 0.000000 5.819831 5.451834 -21.469170 2.123322 -2.385429 1.113960 5.176522 -32.484420 19.230182 0.000000 0.000000 0.000000
-31.159909 85.436728 334.390008 -0.165281 -1.663141 21.222293 0.185778 -1.125257 -21.217559 -0.133449 -0.637686 0.006992 2.370092 5.299540 0.904142 0.000000 0.000000 0.000000 37.338963 -15.485970 11.466046 89.791525 -55.544454 109.021394 9.152710 18.627990 -40.095282 -19.739398 1.122904 39.669000 0.000000 0.000000 0.000000 0.000000 0.000000 0.000000 -4.621855 4.706137 1.093463 2.951607 -7.380002 1.233011 -2.800881 6.020571 2.185449 4.378117 4.467593 -7.227237 0.000000 0.000000 0.000000 0.000000 0.000000 0.000000 4.297316 -0.596558 -21.304039 2.316128 5.171209 1.140926 -6.097643 2.055581 -3.139356 0.000000 0.000000 0.000000 5.973748 8.235163 -20.797108 3.348681 -5.225857 1.083110 11.119860 -43.647334 21.447401 0.000000 0.000000 0.000000
